<svg version="1.1" xmlns="http://www.w3.org/2000/svg" viewBox="0 0 2000 2000" width="500" height="500">
  <!-- White background -->
  <rect width="2000" height="2000" fill="white"/>
  <!-- Logo centered: content bbox ~106-1983 x, ~285-1887 y → center (1044.5, 1086) → scale 0.82 into 2000x2000 -->
  <g transform="translate(1000,1000) scale(0.82) translate(-1044.5,-1086)">
    <path transform="translate(0,0)" fill="rgb(5,190,112)" d="M 419.862 674.484 C 435.728 668.354 458.528 662.144 475.803 656.024 L 656.016 592.676 L 1186.67 406.465 L 1416.13 326.18 L 1491.31 299.4 C 1501.37 295.829 1524.52 287.058 1533.68 285.655 C 1538.62 293.639 1549.63 334.584 1553.14 346.533 L 1578.67 431.329 C 1582.74 447.313 1588.2 463.916 1592.93 479.794 C 1597.27 494.376 1601.9 510.905 1607.35 525.064 C 1608.28 529.115 1609.58 536.568 1611.79 539.578 C 1612.13 539.614 1612.47 539.657 1612.82 539.685 C 1626.9 540.869 1727.86 523.645 1732.62 530.728 C 1734.72 533.848 1734.87 540.6 1735.01 544.364 C 1735.76 563.747 1734.38 583.416 1734.64 602.865 C 1735.55 660.474 1736.02 718.09 1736.04 775.707 L 1736.22 786.18 C 1748.28 790.07 1764.97 793.908 1777.56 797.118 C 1791.31 800.622 1807.85 805.226 1821.59 807.988 C 1860.15 818.327 1899.46 826.933 1937.98 837.476 C 1949.38 840.597 1973.52 845.192 1982.43 850.518 C 1982.86 863.222 1965.69 923.713 1961.58 939.981 L 1921.88 1098.06 L 1802 1573 C 1781.15 1655.71 1760.72 1745.53 1737.86 1826.9 C 1737.04 1835.24 1729.69 1853.06 1725.27 1860.26 C 1711.4 1882.83 1689.8 1886.71 1665.94 1886.84 C 1663.29 1886.11 1660.63 1885.41 1657.96 1884.74 C 1642.15 1885.1 1605.87 1885.26 1590.3 1884.41 L 1598.85 1883.85 L 1598.4 1883.37 C 1572.08 1882.63 1540.07 1883.43 1513.13 1883.46 L 1345.84 1883.61 L 892.271 1883.62 L 719.291 1883.64 C 700.778 1883.68 679.077 1885.02 661.726 1884.69 C 602.129 1883.32 542.513 1882.98 482.904 1883.7 C 472.135 1883.72 461.335 1883.84 450.572 1883.54 C 440.767 1883.26 431.305 1882.14 421.506 1882.69 L 420.345 1884.75 C 416.764 1884.07 413.152 1882.29 410.087 1881.84 C 409.054 1879.59 406.979 1872.97 406.065 1870.33 C 398.345 1852.74 386.624 1810.72 379.908 1789.78 L 314.226 1578.77 L 192.236 1184.71 C 166.239 1100.95 139.969 1017.19 113.998 933.418 C 111.34 924.845 105.318 905.346 106.437 897.284 C 116.929 889.986 166.101 876.311 181.161 871.706 L 271.918 843.241 L 362.986 814.961 C 372.819 811.925 399.881 802.685 408.879 801.573 C 411.966 792.98 409.93 694.444 410.202 677.987 L 419.862 674.484 z M 1003.54 1457.68 C 1003.87 1457.93 1004.21 1458.18 1004.55 1458.42 C 1041.62 1494.59 1067.46 1553.57 1119.28 1571.21 C 1162.62 1585.96 1205.79 1576.74 1242.11 1550.33 C 1270.4 1524.74 1286.88 1499.51 1288.74 1459.98 C 1289.61 1437.33 1284.55 1414.85 1274.07 1394.76 C 1265.82 1378.76 1255.04 1367.17 1243.79 1353.54 C 1225.71 1331.61 1207.27 1310.01 1189.11 1288.15 C 1180.68 1277.99 1190.72 1269.44 1197.26 1261.17 L 1237.37 1210.74 C 1244.61 1201.66 1252.53 1192.76 1259.18 1183.03 C 1280.28 1152.16 1285.65 1118.95 1277.55 1082.96 C 1265.68 1030.24 1218.56 990.549 1163.88 988.045 C 1130.6 986.243 1098.03 998.1 1073.7 1020.87 C 1050.59 1042.09 1030.29 1076.89 1009.88 1101.33 C 1008.22 1103.32 1006.79 1104.28 1004.3 1104.93 C 1001.04 1100.41 998.274 1080.95 996.419 1073.9 C 982.961 1022.7 924.808 980.067 870.627 988.419 C 818.112 992.857 772.065 1029.05 760.655 1081.94 C 754.495 1110.5 756.274 1145.37 756.293 1174.84 L 756.368 1283.7 L 756.145 1395.42 C 756.135 1453.73 751.923 1509.14 801.607 1550.68 C 852.553 1593.28 933.086 1586.07 974.77 1533.84 C 996.569 1506.53 997.138 1489.46 1003.54 1457.68 z"/>
    <path transform="translate(0,0)" fill="rgb(237,237,236)" d="M 419.862 674.484 C 435.728 668.354 458.528 662.144 475.803 656.024 L 656.016 592.676 L 1186.67 406.465 L 1416.13 326.18 L 1491.31 299.4 C 1501.37 295.829 1524.52 287.058 1533.68 285.655 C 1538.62 293.639 1549.63 334.584 1553.14 346.533 L 1578.67 431.329 C 1582.74 447.313 1588.2 463.916 1592.93 479.794 C 1597.27 494.376 1601.9 510.905 1607.35 525.064 C 1608.28 529.115 1609.58 536.568 1611.79 539.578 C 1612.13 539.614 1612.47 539.657 1612.82 539.685 C 1626.9 540.869 1727.86 523.645 1732.62 530.728 C 1734.72 533.848 1734.87 540.6 1735.01 544.364 C 1735.76 563.747 1734.38 583.416 1734.64 602.865 C 1735.55 660.474 1736.02 718.09 1736.04 775.707 L 1736.22 786.18 C 1748.28 790.07 1764.97 793.908 1777.56 797.118 C 1791.31 800.622 1807.85 805.226 1821.59 807.988 C 1860.15 818.327 1899.46 826.933 1937.98 837.476 C 1949.38 840.597 1973.52 845.192 1982.43 850.518 C 1982.86 863.222 1965.69 923.713 1961.58 939.981 L 1921.88 1098.06 L 1802 1573 C 1781.15 1655.71 1760.72 1745.53 1737.86 1826.9 C 1737.04 1835.24 1729.69 1853.06 1725.27 1860.26 C 1711.4 1882.83 1689.8 1886.71 1665.94 1886.84 C 1663.29 1886.11 1660.63 1885.41 1657.96 1884.74 C 1631.35 1872.52 1619.49 1850.06 1620.07 1821.56 C 1620.42 1804.47 1620.21 1786.96 1620.29 1769.84 L 1620.34 1669.2 L 1620.38 1242.54 L 1620.25 1086.39 C 1620.23 1072.94 1621.64 1004.27 1618.09 998.221 L 1601.72 981.357 C 1596.15 977.435 1569.94 950.416 1565.24 944.795 C 1554.8 936.193 1543.66 924.586 1533.94 914.907 C 1518.96 900.078 1504.08 885.156 1489.29 870.141 C 1484.06 866.275 1457.2 838.303 1452.32 832.855 C 1442.6 825.144 1429.81 811.762 1420.97 802.862 L 1377.05 758.367 C 1370.41 753.188 1346.95 728.734 1340.64 721.937 C 1323.97 707.603 1310.54 691.892 1294.41 677.07 C 1269.44 676.34 1241.93 676.868 1216.73 676.875 L 1075.58 676.882 L 653.847 676.862 C 592.27 676.817 528.531 677.691 467.17 676.851 C 452.881 677.064 433.023 678.359 419.862 674.484 z"/>
    <path transform="translate(0,0)" fill="rgb(167,167,166)" d="M 419.862 674.484 C 435.728 668.354 458.528 662.144 475.803 656.024 L 656.016 592.676 L 1186.67 406.465 L 1416.13 326.18 L 1491.31 299.4 C 1501.37 295.829 1524.52 287.058 1533.68 285.655 C 1538.62 293.639 1549.63 334.584 1553.14 346.533 L 1578.67 431.329 C 1582.74 447.313 1588.2 463.916 1592.93 479.794 C 1597.27 494.376 1601.9 510.905 1607.35 525.064 C 1608.28 529.115 1609.58 536.568 1611.79 539.578 C 1512.55 553.002 1408.03 563.114 1308.18 574.728 L 530.665 664.706 C 499.055 668.522 466.926 669.946 435.619 673.94 L 435.24 674.643 C 446.51 676.932 457.164 675.409 467.17 676.851 C 452.881 677.064 433.023 678.359 419.862 674.484 z"/>
    <path transform="translate(0,0)" fill="rgb(167,167,166)" d="M 1736.22 786.18 C 1748.28 790.07 1764.97 793.908 1777.56 797.118 C 1791.31 800.622 1807.85 805.226 1821.59 807.988 C 1860.15 818.327 1899.46 826.933 1937.98 837.476 C 1949.38 840.597 1973.52 845.192 1982.43 850.518 C 1982.86 863.222 1965.69 923.713 1961.58 939.981 L 1921.88 1098.06 L 1802 1573 C 1781.15 1655.71 1760.72 1745.53 1737.86 1826.9 C 1735.79 1819.36 1735.96 1774.01 1735.94 1763.91 L 1735.79 1648.32 L 1735.87 1367.73 C 1735.89 1322.08 1734.58 1271.95 1735.89 1226.67 C 1753.4 1230.75 1770.87 1235.05 1788.27 1239.57 C 1790.69 1227.57 1794.86 1210.7 1798.14 1198.99 C 1777.67 1194.31 1756.34 1188.71 1735.87 1183.67 L 1736.07 1102.36 C 1762.26 1108.3 1790.79 1115.92 1816.88 1122.8 C 1819.79 1110.49 1822.85 1093.57 1826.79 1082 C 1799.41 1076.82 1764.81 1066.02 1735.89 1059.72 C 1735.54 1033.09 1735.77 1005.91 1735.86 979.256 C 1767.98 986.441 1815.08 996.961 1845.96 1006.96 C 1849.38 993.252 1852.94 979.577 1856.65 965.942 C 1834.59 960.059 1811.73 954.885 1789.51 949.119 C 1773.85 945.057 1751.51 938.558 1736.26 936.227 C 1735.29 886.045 1736.33 836.247 1736.22 786.18 z"/>
    <path transform="translate(0,0)" fill="rgb(167,167,166)" d="M 1642.65 684.857 C 1642.62 698.263 1643.08 713.571 1642.62 726.729 C 1567.12 734.545 1491.77 744.862 1416.31 753.29 C 1409.38 754.064 1381.4 756.695 1377.05 758.367 C 1370.41 753.188 1346.95 728.734 1340.64 721.937 C 1347.69 718.658 1408.28 712.465 1419.21 711.206 C 1474.07 705.234 1528.88 698.74 1583.62 691.726 C 1601.64 689.468 1625.77 687.67 1642.65 684.857 z"/>
    <path transform="translate(0,0)" fill="rgb(167,167,166)" d="M 1452.32 832.855 C 1459.75 829.742 1488.46 828.044 1497.86 827.011 L 1594.22 815.598 C 1605.92 814.205 1631.78 812.021 1642.14 809.962 C 1642.38 824.138 1642.67 837.573 1642.11 851.747 C 1602.88 855.679 1563.77 861.382 1524.49 865.21 C 1518.36 865.808 1492.86 868.493 1489.29 870.141 C 1484.06 866.275 1457.2 838.303 1452.32 832.855 z"/>
    <path transform="translate(0,0)" fill="rgb(167,167,166)" d="M 1565.24 944.795 C 1572.17 942.602 1584.49 942.009 1592.04 941.139 C 1608.76 939.213 1625.86 938.054 1642.52 935.485 C 1642.63 948.725 1642.93 964.129 1642.23 977.288 C 1630.22 978.311 1613.52 979.426 1601.72 981.357 C 1596.15 977.435 1569.94 950.416 1565.24 944.795 z"/>
    <path transform="translate(0,0)" fill="rgb(167,167,166)" d="M 406.065 1870.33 C 398.345 1852.74 386.624 1810.72 379.908 1789.78 L 314.226 1578.77 L 192.236 1184.71 C 166.239 1100.95 139.969 1017.19 113.998 933.418 C 111.34 924.845 105.318 905.346 106.437 897.284 C 116.929 889.986 166.101 876.311 181.161 871.706 L 271.918 843.241 L 362.986 814.961 C 372.819 811.925 399.881 802.685 408.879 801.573 C 410.428 854.557 408.98 915.945 408.977 969.589 L 409.023 1298.61 L 408.994 1662.77 C 408.996 1725.65 409.289 1788.69 408.871 1851.58 C 408.828 1858.06 408.703 1864.43 406.065 1870.33 z"/>
    <path transform="translate(0,0)" fill="rgb(11,150,89)" d="M 1294.41 677.07 C 1310.54 691.892 1323.97 707.603 1340.64 721.937 C 1346.95 728.734 1370.41 753.188 1377.05 758.367 L 1420.97 802.862 C 1429.81 811.762 1442.6 825.144 1452.32 832.855 C 1457.2 838.303 1484.06 866.275 1489.29 870.141 C 1504.08 885.156 1518.96 900.078 1533.94 914.907 C 1543.66 924.586 1554.8 936.193 1565.24 944.795 C 1569.94 950.416 1596.15 977.435 1601.72 981.357 L 1618.09 998.221 C 1590.33 1001.14 1551.89 998.86 1522.87 999.326 C 1446.7 1000.55 1370.03 998.411 1293.9 1000.12 C 1293.53 920.63 1293.78 841.141 1294.65 761.659 C 1294.97 736.476 1292.24 700.69 1294.41 677.07 z"/>
    <path transform="translate(0,0)" fill="rgb(11,150,89)" fill-opacity="0.980392" d="M 410.087 1881.84 C 413.152 1882.29 416.764 1884.07 420.345 1884.75 L 421.506 1882.69 C 431.305 1882.14 440.767 1883.26 450.572 1883.54 C 461.335 1883.84 472.135 1883.72 482.904 1883.7 C 542.513 1882.98 602.129 1883.32 661.726 1884.69 C 679.077 1885.02 700.778 1883.68 719.291 1883.64 L 892.271 1883.62 L 1345.84 1883.61 L 1513.13 1883.46 C 1540.07 1883.43 1572.08 1882.63 1598.4 1883.37 L 1598.85 1883.85 L 1590.3 1884.41 C 1605.87 1885.26 1642.15 1885.1 1657.96 1884.74 C 1660.63 1885.41 1663.29 1886.11 1665.94 1886.84 C 1629.47 1887.74 1590.53 1886.57 1553.87 1886.46 L 1338.99 1886.23 L 640.582 1886.22 C 587.9 1886.25 470.203 1887.28 411.656 1885.59 C 410.749 1885.56 410.461 1883.2 410.087 1881.84 z"/>
  </g>
</svg>
